<?xml version="1.0" encoding="UTF-8"?>
<svg width="800" height="600" viewBox="0 0 800 600" fill="none" xmlns="http://www.w3.org/2000/svg">
    <!-- Background Elements -->
    <circle cx="400" cy="300" r="250" fill="url(#gradient1)" fill-opacity="0.1"/>
    <circle cx="400" cy="300" r="200" fill="url(#gradient2)" fill-opacity="0.1"/>
    
    <!-- Main Elements -->
    <rect x="250" y="150" width="300" height="200" rx="20" fill="#4F46E5" filter="url(#shadow)"/>
    <rect x="270" y="170" width="260" height="160" rx="10" fill="white"/>
    
    <!-- Code Elements -->
    <rect x="290" y="190" width="120" height="10" rx="5" fill="#E5E7EB"/>
    <rect x="290" y="210" width="180" height="10" rx="5" fill="#E5E7EB"/>
    <rect x="290" y="230" width="140" height="10" rx="5" fill="#E5E7EB"/>
    <rect x="290" y="250" width="160" height="10" rx="5" fill="#E5E7EB"/>
    
    <!-- Floating Elements -->
    <circle cx="600" cy="200" r="30" fill="#34D399"/>
    <circle cx="200" cy="400" r="40" fill="#818CF8"/>
    <circle cx="650" cy="450" r="25" fill="#F472B6"/>
    
    <!-- Decorative Lines -->
    <path d="M150 150 L200 200" stroke="#4F46E5" stroke-width="4" stroke-linecap="round"/>
    <path d="M650 500 L700 550" stroke="#34D399" stroke-width="4" stroke-linecap="round"/>
    <path d="M700 150 L650 200" stroke="#F472B6" stroke-width="4" stroke-linecap="round"/>
    
    <!-- Definitions -->
    <defs>
        <linearGradient id="gradient1" x1="0" y1="0" x2="800" y2="600" gradientUnits="userSpaceOnUse">
            <stop stop-color="#4F46E5"/>
            <stop offset="1" stop-color="#818CF8"/>
        </linearGradient>
        <linearGradient id="gradient2" x1="800" y1="0" x2="0" y2="600" gradientUnits="userSpaceOnUse">
            <stop stop-color="#34D399"/>
            <stop offset="1" stop-color="#F472B6"/>
        </linearGradient>
        <filter id="shadow" x="240" y="140" width="320" height="220" filterUnits="userSpaceOnUse" color-interpolation-filters="sRGB">
            <feFlood flood-opacity="0" result="BackgroundImageFix"/>
            <feColorMatrix in="SourceAlpha" type="matrix" values="0 0 0 0 0 0 0 0 0 0 0 0 0 0 0 0 0 0 127 0"/>
            <feOffset dy="4"/>
            <feGaussianBlur stdDeviation="5"/>
            <feColorMatrix type="matrix" values="0 0 0 0 0 0 0 0 0 0 0 0 0 0 0 0 0 0 0.25 0"/>
            <feBlend mode="normal" in2="BackgroundImageFix" result="effect1_dropShadow"/>
            <feBlend mode="normal" in="SourceGraphic" in2="effect1_dropShadow" result="shape"/>
        </filter>
    </defs>
</svg> 